1.8Hz3min_grf.mot
version=1
nRows=15
nColumns 19
inDegrees=yes
endheader
time	1_ground_force_vx	1_ground_force_vy	1_ground_force_vz	1_ground_force_px	1_ground_force_py	1_ground_force_pz	1_ground_torque_x	1_ground_torque_y	1_ground_torque_z	2_ground_force_vx	2_ground_force_vy	2_ground_force_vz	2_ground_force_px	2_ground_force_py	2_ground_force_pz	2_ground_torque_x	2_ground_torque_y	2_ground_torque_z
            3.751500	           27.823675	          201.563248	           -4.065731	           -0.161935	            0.006250	           -0.408628	           -0.185082	           -1.340792	            0.027045	           12.078121	          106.659854	            2.346117	           -0.150420	            0.005869	           -0.677630	           -0.093907	           -0.829279	           -0.018241
            3.752000	           27.916361	          197.957363	           -3.943850	           -0.161563	            0.006249	           -0.408394	           -0.192099	           -1.362191	            0.027139	           11.949452	          103.345346	            2.146638	           -0.151284	            0.005860	           -0.676004	           -0.086688	           -0.749726	           -0.015573
            3.752500	           27.825839	          193.450113	           -3.825379	           -0.161748	            0.006251	           -0.408901	           -0.187732	           -1.305145	            0.025809	           11.634007	           99.846341	            1.852724	           -0.148860	            0.005865	           -0.674842	           -0.071967	           -0.617642	           -0.011461
            3.753000	           27.368769	          189.122665	           -3.613512	           -0.161291	            0.006251	           -0.408739	           -0.177560	           -1.226966	            0.023443	           11.781991	           97.820220	            2.127006	           -0.149046	            0.005866	           -0.675384	           -0.071222	           -0.591323	           -0.012858
            3.753500	           27.690183	          185.697876	           -3.674851	           -0.161695	            0.006247	           -0.407967	           -0.163861	           -1.098899	            0.021747	           11.556861	           95.242804	            1.695554	           -0.149391	            0.005867	           -0.676036	           -0.071780	           -0.591555	           -0.010531
            3.754000	           27.233633	          181.009111	           -3.281107	           -0.160377	            0.006250	           -0.408483	           -0.196530	           -1.306242	            0.023678	           11.803197	           91.927976	            1.965195	           -0.149026	            0.005871	           -0.676885	           -0.089658	           -0.698292	           -0.014928
            3.754500	           26.960096	          177.041836	           -2.976438	           -0.161029	            0.006250	           -0.408472	           -0.201439	           -1.322811	            0.022239	           11.434941	           90.085976	            1.724144	           -0.150891	            0.005865	           -0.677084	           -0.095691	           -0.753867	           -0.014428
            3.755000	           26.686511	          172.714228	           -2.719171	           -0.161122	            0.006251	           -0.408753	           -0.199473	           -1.290984	            0.020325	           11.207900	           88.060328	            1.482375	           -0.149465	            0.005875	           -0.678411	           -0.097568	           -0.766587	           -0.012904
            3.755500	           26.275572	          169.287331	           -2.320130	           -0.160527	            0.006249	           -0.408349	           -0.204635	           -1.318417	            0.018069	           10.984140	           85.114281	            1.143465	           -0.149074	            0.005870	           -0.676468	           -0.089551	           -0.693913	           -0.009322
            3.756000	           26.231006	          166.041360	           -2.058794	           -0.161585	            0.006245	           -0.407376	           -0.196652	           -1.244801	            0.015435	           10.943957	           83.272461	            1.183843	           -0.149960	            0.005871	           -0.677795	           -0.076671	           -0.583392	           -0.008294
            3.756500	           26.185577	          161.895830	           -2.214026	           -0.161152	            0.006244	           -0.407098	           -0.190499	           -1.177786	            0.016107	           10.860830	           80.326251	            1.032585	           -0.148131	            0.005876	           -0.677386	           -0.071233	           -0.526837	           -0.006772
            3.757000	           25.819881	          158.650191	           -2.043606	           -0.161182	            0.006242	           -0.406796	           -0.183296	           -1.126261	            0.014508	           10.821332	           78.300124	            1.119234	           -0.149067	            0.005874	           -0.677783	           -0.080662	           -0.583646	           -0.008343
            3.757500	           25.729362	          152.881475	           -2.022257	           -0.159722	            0.006252	           -0.409010	           -0.193276	           -1.148427	            0.015191	           10.736293	           75.905682	            1.157660	           -0.148157	            0.005872	           -0.676318	           -0.098153	           -0.693944	           -0.010584
            3.758000	           25.455513	          149.995992	           -1.758806	           -0.160006	            0.006246	           -0.407493	           -0.209786	           -1.236161	            0.014495	           10.930879	           73.881739	            0.868784	           -0.149187	            0.005874	           -0.677945	           -0.123332	           -0.833599	           -0.009802
            3.758500	           25.136737	          145.847460	           -1.225517	           -0.159792	            0.006248	           -0.408104	           -0.216702	           -1.257340	            0.010565	           10.373271	           72.591165	            0.723639	           -0.150084	            0.005877	           -0.679479	           -0.097889	           -0.685020	           -0.006829
